<svg width="176" height="200" viewBox="0 0 176 200" fill="none" xmlns="http://www.w3.org/2000/svg">
<path d="M88.0948 121.95C68.6339 122.035 52.7847 106.313 52.7847 86.8948C52.7847 78.9914 55.4616 71.343 60.3481 65.1393L61.5378 63.7796C61.6653 63.6521 61.8353 63.4822 61.9628 63.3547L96.5931 24.9427C102.032 29.8291 102.499 38.1999 97.6128 43.5963L71.4808 72.5753C67.9965 76.5269 66.0844 81.6259 66.0844 86.8948C66.0844 99.0048 76.0698 108.905 88.2648 108.693C100.247 108.48 109.808 98.5374 109.808 86.5549V77.4617C109.808 70.1533 115.714 64.247 123.065 64.247V86.4699C123.023 105.888 107.471 121.865 88.0948 121.95Z" fill="#07689F"/>
<path d="M115.459 56.7686V56.8535L79.2992 96.9652C73.8603 92.0787 73.3929 83.708 78.2794 78.3116L104.411 49.3326C107.896 45.3809 109.808 40.2395 109.808 35.0131C109.808 22.9031 99.8224 13.0026 87.6274 13.2151C75.5599 13.3851 65.9994 23.3705 65.9994 35.353V44.4461C65.9994 51.7546 60.0932 57.6609 52.7422 57.6609V35.438C52.7847 16.1045 68.3364 0.0853252 87.6699 0.000342906C107.131 -0.0846394 122.98 15.6371 122.98 35.0556C123.023 42.9589 120.346 50.6073 115.459 56.7686Z" fill="#07689F"/>
<path d="M4.79516 180.255L0 175.459V148.957L4.79516 144.162H16.1386L20.9337 148.957V155.712H14.4371V151.638L13.4574 150.659H7.47633L6.49667 151.638V172.778L7.47633 173.758H13.4574L14.4371 172.778V168.705H20.9337V175.459L16.1386 180.255H4.79516ZM24.7724 180.255V174.48L25.8552 173.758V150.659L24.7724 149.937V144.162H33.4347V149.937L32.3519 150.659V158.96H40.2923V150.659L39.2095 149.937V144.162H47.8717V149.937L46.7889 150.659V173.758L47.8717 174.48V180.255H39.2095V174.48L40.2923 173.758V165.457H32.3519V173.758L33.4347 174.48V180.255H24.7724ZM50.6792 180.255V174.48L51.762 173.758L56.454 150.659L55.3713 149.937V144.162H69.0865V149.937L68.0037 150.659L72.6957 173.758L73.7785 174.48V180.255H67.3849L65.7866 172.314H58.6711L57.0728 180.255H50.6792ZM60.0117 165.818H64.446L62.2289 154.783L60.0117 165.818ZM83.0827 180.255V174.48L84.1654 173.758V150.659H83.0827L82.3608 151.741H76.586V144.162H98.2416V151.741H92.4667L91.7449 150.659H90.6621V173.758L91.7449 174.48V180.255H83.0827ZM108.577 180.255V174.48L109.66 173.758V150.659H108.577L107.855 151.741H102.08V144.162H123.736V151.741H117.961L117.239 150.659H116.156V173.758L117.239 174.48V180.255H108.577ZM133.453 180.255L128.657 175.459V150.659L127.575 149.937V144.162H136.237V149.937L135.154 150.659V172.778L136.134 173.758H142.115L143.094 172.778V150.659L142.012 149.937V144.162H150.674V149.937L149.591 150.659V175.459L144.796 180.255H133.453ZM154.513 180.255V174.48L155.595 173.758V150.659L154.513 149.937V144.162H171.012L175.807 148.957V162.827L171.012 167.622H162.092V173.758L163.175 174.48V180.255H154.513ZM162.092 161.125H168.331L169.311 160.146V151.638L168.331 150.659H162.092V161.125Z" fill="#07689F"/>
<path d="M17.5806 199.277V189.711C17.5806 189.312 17.6604 189.232 17.7882 189.232H24.7829C24.8947 189.232 24.9905 189.312 24.9905 189.424V191.228C24.9905 191.34 24.8947 191.436 24.7829 191.436H20.0559V193.097H23.0422C23.154 193.097 23.2498 193.193 23.2498 193.305V195.093C23.2498 195.205 23.154 195.301 23.0422 195.301H20.0559V197.01H24.7669C24.8787 197.01 24.9745 197.105 24.9745 197.217V199.006C24.9745 199.118 24.8787 199.213 24.7669 199.213H17.7882C17.6604 199.213 17.5806 199.118 17.5806 199.277ZM27.6778 199.277C27.6139 199.277 27.55 199.245 27.5181 199.181C27.4702 199.133 27.4702 199.054 27.4862 198.99L31.2071 189.424C31.239 189.344 31.3189 189.296 31.3987 189.296H33.5387C33.6185 189.296 33.6984 189.344 33.7303 189.424L37.3874 198.99C37.4033 199.054 37.4033 199.118 37.3554 199.181C37.3235 199.245 37.2596 199.277 37.1957 199.277H34.976C34.8961 199.277 34.8163 199.229 34.7843 199.149L34.1934 197.68L30.6003 197.696L30.0094 199.149C29.9774 199.229 29.8976 199.277 29.8177 199.277H27.6778ZM31.255 195.684H33.5547L32.4048 192.298L31.255 195.684ZM43.8276 199.373C43.061 199.373 42.2945 199.229 41.5599 198.942C40.8253 198.67 40.1705 198.271 39.6275 197.792C39.5636 197.728 39.5477 197.632 39.5796 197.552L40.1386 195.652C40.1705 195.588 40.2184 195.54 40.2823 195.54C40.3462 195.524 40.41 195.54 40.458 195.588C41.3043 196.387 42.2625 197.105 43.4603 197.169C43.7796 197.185 44.131 197.201 44.4344 197.105C45.3766 196.802 44.9774 195.844 44.2747 195.556C44.0352 195.46 43.6998 195.349 43.2686 195.221C42.6298 195.045 42.1028 194.854 41.7036 194.662C41.2724 194.47 40.9051 194.167 40.5857 193.768C40.2823 193.352 40.1226 192.809 40.1226 192.155C40.1226 191.532 40.2823 190.989 40.6017 190.526C40.9211 190.063 41.3682 189.695 41.9272 189.456C42.4861 189.216 43.1409 189.089 43.8755 189.089C44.5302 189.089 45.169 189.184 45.8078 189.392C46.4306 189.584 46.9896 189.855 47.4846 190.174C47.5645 190.238 47.5964 190.334 47.5485 190.43L47.0215 192.219C47.0055 192.282 46.9576 192.314 46.8937 192.33C46.8458 192.346 46.782 192.346 46.734 192.314C46.0154 191.867 45.2968 191.324 44.4504 191.213C43.8914 191.133 43.045 191.165 42.8534 191.835C42.6139 192.698 43.8755 192.921 44.4504 193.097C45.0892 193.289 45.6162 193.48 46.0314 193.672C46.4626 193.879 46.8458 194.199 47.1493 194.598C47.4686 195.013 47.6283 195.572 47.6283 196.243C47.6283 196.898 47.4527 197.457 47.1173 197.936C46.7979 198.415 46.3348 198.766 45.7599 199.022C45.185 199.245 44.5462 199.373 43.8276 199.373ZM53.2221 199.277C53.1103 199.277 53.0305 199.181 53.0305 199.07V195.269L49.6449 189.6C49.613 189.536 49.613 189.456 49.6609 189.392C49.6928 189.328 49.7567 189.296 49.8366 189.296H51.9126C51.9925 189.296 52.0563 189.328 52.0883 189.408L54.2602 192.953L56.3841 189.408C56.4161 189.344 56.4799 189.296 56.5598 189.296H58.6518C58.7157 189.296 58.7956 189.328 58.8275 189.392C58.8594 189.456 58.8594 189.536 58.8275 189.6L55.5058 195.205V199.07C55.5058 199.181 55.41 199.277 55.2982 199.277H53.2221ZM66.7253 199.277C66.6135 199.277 66.5177 199.181 66.5177 199.07V189.504C66.5177 189.392 66.6135 189.296 66.7253 189.296H69.0249C69.1048 189.296 69.1846 189.344 69.2166 189.408L71.612 195.317L73.9915 189.408C74.0235 189.344 74.1033 189.296 74.1831 189.296H76.4828C76.5946 189.296 76.6904 189.392 76.6904 189.504V199.07C76.6904 199.181 76.5946 199.277 76.4828 199.277H74.6143C74.5025 199.277 74.4067 199.181 74.4067 199.07V193.927L72.4584 198.878C72.4265 198.942 72.3466 198.99 72.2828 198.99H70.9413C70.8615 198.99 70.7816 198.942 70.7497 198.878L68.7854 193.927V199.07C68.7854 199.181 68.6896 199.277 68.5778 199.277H66.7253ZM79.1701 199.277V189.711C79.1701 189.312 79.2499 189.232 79.3777 189.232H86.3724C86.4842 189.232 86.58 189.312 86.58 189.424V191.228C86.58 191.34 86.4842 191.436 86.3724 191.436H81.6454V193.097H84.6317C84.7435 193.097 84.8393 193.193 84.8393 193.305V195.093C84.8393 195.205 84.7435 195.301 84.6317 195.301H81.6454V197.01H86.3565C86.4682 197.01 86.5641 197.105 86.5641 197.217V199.006C86.5641 199.118 86.4682 199.213 86.3565 199.213H79.3777C79.2499 199.213 79.1701 199.118 79.1701 199.277ZM93.3236 199.373C92.5571 199.373 91.7905 199.229 91.0559 198.942C90.3213 198.67 89.6666 198.271 89.1236 197.792C89.0597 197.728 89.0437 197.632 89.0757 197.552L89.6346 195.652C89.6666 195.588 89.7145 195.54 89.7784 195.54C89.8422 195.524 89.9061 195.54 89.954 195.588C90.8004 196.387 91.7586 197.105 92.9563 197.169C93.2757 197.185 93.627 197.201 93.9305 197.105C94.8727 196.802 94.4734 195.844 93.7708 195.556C93.5312 195.46 93.1959 195.349 92.7647 195.221C92.1259 195.045 91.5989 194.854 91.1997 194.662C90.7685 194.47 90.4012 194.167 90.0818 193.768C89.7784 193.352 89.6187 192.809 89.6187 192.155C89.6187 191.532 89.7784 190.989 90.0977 190.526C90.4171 190.063 90.8643 189.695 91.4232 189.456C91.9822 189.216 92.6369 189.089 93.3715 189.089C94.0263 189.089 94.6651 189.184 95.3039 189.392C95.9267 189.584 96.4856 189.855 96.9807 190.174C97.0605 190.238 97.0925 190.334 97.0446 190.43L96.5176 192.219C96.5016 192.282 96.4537 192.314 96.3898 192.33C96.3419 192.346 96.278 192.346 96.2301 192.314C95.5115 191.867 94.7928 191.324 93.9464 191.213C93.3875 191.133 92.5411 191.165 92.3495 191.835C92.1099 192.698 93.3715 192.921 93.9464 193.097C94.5852 193.289 95.1122 193.48 95.5274 193.672C95.9586 193.879 96.3419 194.199 96.6453 194.598C96.9647 195.013 97.1244 195.572 97.1244 196.243C97.1244 196.898 96.9487 197.457 96.6134 197.936C96.294 198.415 95.8309 198.766 95.256 199.022C94.6811 199.245 94.0423 199.373 93.3236 199.373ZM103.868 199.373C103.101 199.373 102.335 199.229 101.6 198.942C100.866 198.67 100.211 198.271 99.668 197.792C99.6041 197.728 99.5881 197.632 99.6201 197.552L100.179 195.652C100.211 195.588 100.259 195.54 100.323 195.54C100.387 195.524 100.451 195.54 100.498 195.588C101.345 196.387 102.303 197.105 103.501 197.169C103.82 197.185 104.171 197.201 104.475 197.105C105.417 196.802 105.018 195.844 104.315 195.556C104.076 195.46 103.74 195.349 103.309 195.221C102.67 195.045 102.143 194.854 101.744 194.662C101.313 194.47 100.946 194.167 100.626 193.768C100.323 193.352 100.163 192.809 100.163 192.155C100.163 191.532 100.323 190.989 100.642 190.526C100.962 190.063 101.409 189.695 101.968 189.456C102.527 189.216 103.181 189.089 103.916 189.089C104.571 189.089 105.209 189.184 105.848 189.392C106.471 189.584 107.03 189.855 107.525 190.174C107.605 190.238 107.637 190.334 107.589 190.43L107.062 192.219C107.046 192.282 106.998 192.314 106.934 192.33C106.886 192.346 106.822 192.346 106.775 192.314C106.056 191.867 105.337 191.324 104.491 191.213C103.932 191.133 103.086 191.165 102.894 191.835C102.654 192.698 103.916 192.921 104.491 193.097C105.13 193.289 105.657 193.48 106.072 193.672C106.503 193.879 106.886 194.199 107.19 194.598C107.509 195.013 107.669 195.572 107.669 196.243C107.669 196.898 107.493 197.457 107.158 197.936C106.838 198.415 106.375 198.766 105.8 199.022C105.225 199.245 104.587 199.373 103.868 199.373ZM110.356 199.277C110.292 199.277 110.228 199.245 110.196 199.181C110.148 199.133 110.148 199.054 110.164 198.99L113.885 189.424C113.917 189.344 113.997 189.296 114.077 189.296H116.217C116.297 189.296 116.377 189.344 116.409 189.424L120.066 198.99C120.082 199.054 120.082 199.118 120.034 199.181C120.002 199.245 119.938 199.277 119.874 199.277H117.654C117.574 199.277 117.495 199.229 117.463 199.149L116.872 197.68L113.279 197.696L112.688 199.149C112.656 199.229 112.576 199.277 112.496 199.277H110.356ZM113.933 195.684H116.233L115.083 192.298L113.933 195.684ZM126.857 199.277C125.915 199.277 125.037 199.054 124.27 198.606C123.488 198.143 122.881 197.521 122.434 196.754C121.986 195.971 121.763 195.077 121.763 194.119C121.763 193.161 121.986 192.282 122.45 191.516C122.897 190.733 123.535 190.111 124.318 189.663C125.116 189.216 126.011 188.993 126.985 188.993C127.688 188.993 128.374 189.12 129.061 189.392C129.732 189.647 130.323 190.015 130.802 190.478C130.882 190.542 130.898 190.654 130.834 190.749L129.668 192.282C129.62 192.33 129.572 192.362 129.508 192.378C129.46 192.378 129.396 192.346 129.348 192.314C129.029 191.995 128.662 191.74 128.231 191.564C127.815 191.388 127.4 191.292 126.985 191.292C126.49 191.292 126.027 191.42 125.628 191.66C125.212 191.915 124.893 192.251 124.653 192.682C124.414 193.113 124.302 193.592 124.302 194.119C124.302 194.646 124.414 195.141 124.653 195.572C124.893 196.003 125.228 196.355 125.628 196.61C126.043 196.85 126.506 196.978 126.985 196.978C127.24 196.978 127.512 196.93 127.815 196.85C128.071 196.77 128.342 196.658 128.582 196.53V195.796H127.48C127.416 195.796 127.368 195.78 127.336 195.732C127.288 195.7 127.272 195.652 127.272 195.588L127.288 193.8C127.288 193.688 127.384 193.592 127.496 193.592H130.594C130.706 193.592 130.802 193.688 130.802 193.8V197.808C130.802 197.872 130.77 197.936 130.706 197.984C130.211 198.367 129.604 198.686 128.901 198.91C128.199 199.149 127.512 199.277 126.857 199.277ZM133.553 199.277C133.441 199.277 133.345 199.181 133.345 199.07V189.504C133.345 189.392 133.441 189.296 133.553 189.296H135.629C135.741 189.296 135.837 189.392 135.837 189.504V199.07C135.837 199.181 135.741 199.277 135.629 199.277H133.553ZM138.524 199.277C138.412 199.277 138.316 199.181 138.316 199.07V189.504C138.316 189.392 138.412 189.296 138.524 189.296H140.408C140.472 189.296 140.536 189.328 140.584 189.376L144.257 195.045V189.504C144.257 189.392 144.353 189.296 144.465 189.296H146.429C146.541 189.296 146.636 189.392 146.636 189.504V199.07C146.636 199.181 146.541 199.277 146.429 199.277H144.544C144.481 199.277 144.417 199.245 144.369 199.197L140.712 193.56V199.07C140.712 199.181 140.616 199.277 140.504 199.277H138.524ZM154.21 199.277C153.268 199.277 152.39 199.054 151.623 198.606C150.841 198.143 150.234 197.521 149.787 196.754C149.34 195.971 149.116 195.077 149.116 194.119C149.116 193.161 149.34 192.282 149.803 191.516C150.25 190.733 150.889 190.111 151.671 189.663C152.47 189.216 153.364 188.993 154.338 188.993C155.041 188.993 155.728 189.12 156.414 189.392C157.085 189.647 157.676 190.015 158.155 190.478C158.235 190.542 158.251 190.654 158.187 190.749L157.021 192.282C156.973 192.33 156.925 192.362 156.861 192.378C156.814 192.378 156.75 192.346 156.702 192.314C156.382 191.995 156.015 191.74 155.584 191.564C155.169 191.388 154.753 191.292 154.338 191.292C153.843 191.292 153.38 191.42 152.981 191.66C152.566 191.915 152.246 192.251 152.007 192.682C151.767 193.113 151.655 193.592 151.655 194.119C151.655 194.646 151.767 195.141 152.007 195.572C152.246 196.003 152.582 196.355 152.981 196.61C153.396 196.85 153.859 196.978 154.338 196.978C154.594 196.978 154.865 196.93 155.169 196.85C155.424 196.77 155.696 196.658 155.935 196.53V195.796H154.833C154.769 195.796 154.722 195.78 154.69 195.732C154.642 195.7 154.626 195.652 154.626 195.588L154.642 193.8C154.642 193.688 154.737 193.592 154.849 193.592H157.947C158.059 193.592 158.155 193.688 158.155 193.8V197.808C158.155 197.872 158.123 197.936 158.059 197.984C157.564 198.367 156.957 198.686 156.255 198.91C155.552 199.149 154.865 199.277 154.21 199.277Z" fill="#07689F"/>
</svg>
